<?xml version="1.0" encoding="UTF-8" standalone="no"?>
<!DOCTYPE svg PUBLIC "-//W3C//DTD SVG 1.1//EN" "http://www.w3.org/Graphics/SVG/1.1/DTD/svg11.dtd">
<svg width="100%" height="100%" viewBox="0 0 1286 967" version="1.1" xmlns="http://www.w3.org/2000/svg" xmlns:xlink="http://www.w3.org/1999/xlink" xml:space="preserve" xmlns:serif="http://www.serif.com/" style="fill-rule:evenodd;clip-rule:evenodd;stroke-linejoin:round;stroke-miterlimit:2;">
    <g transform="matrix(4.16667,0,0,4.16667,-1443.95,-1411.45)">
        <path d="M544.228,483.549C540.392,483.549 536.734,482.799 533.357,481.485C540.835,474.465 545.52,464.502 545.52,453.461C545.52,442.421 540.835,432.458 533.357,425.438C536.734,424.124 540.392,423.375 544.228,423.375C560.818,423.375 574.315,436.872 574.315,453.461C574.315,470.051 560.818,483.549 544.228,483.549ZM514.141,453.461C514.141,443.886 518.653,435.359 525.646,429.845C532.639,435.359 537.152,443.886 537.152,453.461C537.152,463.038 532.639,471.564 525.646,477.078C518.653,471.564 514.141,463.038 514.141,453.461ZM568.135,423.375L574.402,423.375C576.713,423.375 578.586,421.501 578.586,419.19C578.586,416.88 576.713,415.007 574.402,415.007L545.57,415.007C545.478,415.007 545.391,415.028 545.3,415.034C544.943,415.024 544.587,415.007 544.228,415.007C537.492,415.007 531.158,416.753 525.646,419.809C522.661,418.154 519.434,416.89 516.033,416.074L534.295,397.811C535.492,396.615 535.85,394.815 535.202,393.251C534.555,391.689 533.029,390.669 531.337,390.669L482.953,390.669C480.642,390.669 478.769,392.542 478.769,394.853C478.769,397.164 480.642,399.037 482.953,399.037L521.237,399.037L504.042,416.232C502.408,417.867 502.408,420.516 504.042,422.149C504.858,422.966 505.93,423.375 507,423.375C507.011,423.375 507.022,423.372 507.033,423.371C507.043,423.372 507.053,423.375 507.064,423.375C510.9,423.375 514.557,424.124 517.935,425.438C510.457,432.458 505.773,442.421 505.773,453.461C505.773,464.502 510.457,474.465 517.935,481.485C514.557,482.799 510.9,483.549 507.064,483.549C490.474,483.549 476.976,470.051 476.976,453.461C476.976,451.151 475.103,449.278 472.792,449.278C470.481,449.278 468.608,451.151 468.608,453.461C468.608,474.665 485.859,491.917 507.064,491.917C513.8,491.917 520.133,490.17 525.646,487.114C531.158,490.17 537.492,491.917 544.228,491.917C565.433,491.917 582.683,474.665 582.683,453.461C582.683,441.289 576.991,430.426 568.135,423.375Z" style="fill:rgb(58,79,96);fill-rule:nonzero;"/>
    </g>
    <g transform="matrix(4.16667,0,0,4.16667,-1443.95,-1411.45)">
        <path d="M624.482,503.484C622.938,505.242 621.398,506.819 619.886,508.229C619.973,508.021 620.073,507.821 620.159,507.612C623.33,499.868 624.335,490.643 623.334,480.607C624.504,479.301 625.582,477.771 626.524,475.969C638.628,452.736 639.792,429.263 629.891,408.087C629.775,407.839 629.647,407.595 629.528,407.348C637.771,417.942 642.878,429.03 643.97,439.675C647.417,473.315 631.49,495.505 624.482,503.484ZM585.114,524.428C585.648,513.78 587.443,495.121 602.52,489.712C603.551,489.342 605.022,489.037 606.579,488.715C609.123,488.188 612.224,487.542 615.335,486.219C615.516,492.961 614.585,499.143 612.416,504.44C610.552,508.991 608.25,513.231 605.604,517.104C604.712,517.326 603.893,517.447 603.18,517.447C596.806,517.447 590.735,519.825 585.114,524.428ZM554.083,558.082C547.599,559.688 540.746,558.365 535.303,554.451L534.82,554.101C534.737,554.042 534.652,553.985 534.565,553.931C530.729,551.569 526.795,548.61 522.874,545.134C522.801,545.07 522.724,545.006 522.646,544.947C519.602,542.607 516.646,539.94 513.869,537.024C513.799,536.951 513.726,536.88 513.651,536.812C511.009,534.415 508.5,531.737 506.192,528.853C506.129,528.773 506.063,528.698 505.994,528.623C504.979,527.527 504.001,526.369 503.051,525.174C506.171,526.133 509.405,526.889 512.722,527.432C519.138,530.061 525.656,532.742 526.931,533.39C530.093,535.536 533.367,537.405 536.665,538.948C540.922,541.329 545.141,543.243 549.21,544.639C549.341,544.699 549.471,544.756 549.605,544.812C552.974,546.247 556.508,546.944 560.023,546.944C563.284,546.944 566.519,546.312 569.599,545.143C569.486,545.367 569.368,545.576 569.256,545.802C566.192,551.973 560.662,556.45 554.083,558.082ZM385.326,479.651C385.707,471.429 387.082,463.281 389.336,455.327C401.909,464.559 416.936,474.187 434.258,485.267C437.112,487.092 440.013,488.949 442.941,490.828C432.74,488.394 422.404,486.649 412.498,484.982C402.12,483.236 393.014,481.611 385.326,479.651ZM356.695,450.213C357.333,442.935 358.736,436.083 360.802,429.643C366.515,436.587 373.668,443.224 382.238,449.962C379.455,458.842 377.69,467.973 377.086,477.206C362.738,472.218 355.416,464.803 356.695,450.213ZM387.306,389.117C380.373,401.756 384.757,412.776 394.06,423.319C390.625,429.212 387.633,435.313 385.17,441.58C376.499,434.567 369.492,427.693 364.3,420.495C369.704,408.404 377.614,397.964 387.306,389.117ZM509.53,351.105C504.056,351.598 498.603,352.374 493.2,353.417C489.971,352.692 486.755,352.061 483.567,351.557C489.246,351.09 494.916,350.853 500.528,350.853C503.552,350.853 506.548,350.956 509.53,351.105ZM612.135,443.892C614.271,434.831 616.078,416.646 607.06,390.35C613.522,396.804 618.73,403.974 622.312,411.632C630.489,429.121 630.056,448.514 621.122,467.97C619.185,460.153 616.158,452.038 612.135,443.892ZM607.998,455.126C611.182,462.751 613.368,470.214 614.49,477.25C611.618,479.123 608.217,479.831 604.884,480.521C603.857,480.733 602.873,480.949 601.92,481.187C605.687,472.658 607.733,463.801 607.998,455.126ZM578.037,511.806C577.048,517.411 576.814,522.588 576.656,526.183C576.606,527.327 576.545,528.699 576.472,529.407C575.792,530.423 575.028,531.383 574.197,532.265C574.147,532.311 574.099,532.36 574.052,532.409C568.361,538.32 560.051,540.167 552.88,537.113L552.613,536.992C552.454,536.915 552.291,536.848 552.123,536.791C548.427,535.541 544.559,533.785 540.624,531.574C540.53,531.522 540.435,531.473 540.337,531.427C538.298,530.479 536.269,529.376 534.268,528.153C549.965,526.744 565.678,521.219 578.037,511.806ZM400.089,429.519C405.625,434.757 412.083,439.933 418.647,445.19C435.862,458.979 455.079,474.383 463.835,494.364C455.027,488.624 446.762,483.331 438.766,478.218C420.504,466.536 404.827,456.501 392.068,446.949C394.264,440.979 396.947,435.149 400.089,429.519ZM395.9,391.04C409.319,370.883 430.743,359.575 457.855,358.343C462.823,358.119 467.933,358.251 473.142,358.707C442.277,369.258 415.969,390.131 398.684,415.934C391.734,407.432 390.063,399.806 395.9,391.04ZM499.413,363.611C477.796,369.914 439.585,387.489 419.423,435.072C413.653,430.394 408.62,426.153 404.507,422.173C422.494,394.427 451.602,372.449 485.638,363.679C488.112,363.042 490.604,362.476 493.106,361.964C495.201,362.459 497.305,363.02 499.413,363.611ZM551.896,361.35C567.43,364.753 581.719,371.011 593.634,379.242C604.107,402.473 605.923,420.169 605.326,431.629C603.827,429.212 602.225,426.809 600.552,424.417C598.186,420.292 595.269,416.422 591.76,412.914C591.751,412.904 591.74,412.898 591.73,412.889C579.287,398.073 563.424,384.376 544.514,373.626C535.88,368.719 527.076,364.545 518.253,361.111C517.615,360.618 516.84,360.311 516.002,360.247C515.052,359.892 514.104,359.553 513.155,359.215C526.185,358.283 539.271,358.982 551.896,361.35ZM513.625,518.761C506.121,515.688 494.929,511.106 488.629,508.324C487.754,507.593 486.903,506.839 486.102,506.038C484.751,504.688 482.715,504.471 481.124,505.353C481.103,505.355 481.082,505.362 481.06,505.365C479.138,504.213 477.175,503.132 475.176,502.115C475.163,501.999 475.143,501.885 475.13,501.768C475.124,501.708 475.116,501.646 475.106,501.585C475.09,501.477 475.073,501.389 475.072,501.405C475.05,501.26 475.021,501.118 474.984,500.975C468.21,474.98 446.285,456.639 426.239,440.552C450.889,379.323 505.375,369.892 514.745,368.717C523.344,372.036 531.939,376.105 540.379,380.902C563.002,393.762 581.164,411.332 593.95,429.749C605.146,450.676 599.705,479.206 578.928,499.983C563.074,515.835 536.91,522.577 514.885,519.277C514.469,519.106 514.063,518.94 513.625,518.761ZM652.293,438.822C647.63,393.346 581.735,342.485 500.528,342.485C461.646,342.485 425.292,352.23 398.164,369.927C368.444,389.314 351.222,416.823 348.36,449.482C345.493,482.194 377.365,487.556 411.109,493.234C440.119,498.115 472.997,503.647 493.134,525.797C495.153,528.799 497.378,531.623 499.753,534.197C502.278,537.343 505.023,540.271 507.916,542.906C510.925,546.054 514.125,548.941 517.434,551.493C521.633,555.208 525.876,558.396 530.044,560.975L530.404,561.233C535.78,565.1 542.149,567.12 548.612,567.12C551.11,567.12 553.623,566.817 556.098,566.203C565.065,563.977 572.592,557.899 576.751,549.525C582.122,538.708 591.068,525.815 603.18,525.815C605.063,525.815 607.075,525.457 609.167,524.792C609.18,524.789 609.191,524.783 609.205,524.78C616.021,522.601 623.705,517.047 630.769,509.004C638.5,500.202 656.077,475.74 652.293,438.822Z" style="fill:rgb(113,204,219);fill-rule:nonzero;"/>
    </g>
    <g transform="matrix(4.16667,0,0,4.16667,-1443.95,-1411.45)">
        <path d="M431.796,441.039C431.796,434.564 426.547,429.316 420.073,429.316C413.598,429.316 408.35,434.564 408.35,441.039C408.35,447.514 413.598,452.763 420.073,452.763C426.547,452.763 431.796,447.514 431.796,441.039Z" style="fill:rgb(243,127,114);fill-rule:nonzero;"/>
    </g>
    <g transform="matrix(4.16667,0,0,4.16667,-1443.95,-1411.45)">
        <path d="M570.604,387.901C570.604,381.427 565.356,376.178 558.881,376.178C552.407,376.178 547.158,381.427 547.158,387.901C547.158,394.376 552.407,399.625 558.881,399.625C565.356,399.625 570.604,394.376 570.604,387.901Z" style="fill:rgb(243,127,114);fill-rule:nonzero;"/>
    </g>
    <g transform="matrix(4.16667,0,0,4.16667,-1443.95,-1411.45)">
        <path d="M607.738,374.393C607.738,367.918 602.489,362.67 596.015,362.67C589.541,362.67 584.292,367.918 584.292,374.393C584.292,380.868 589.541,386.117 596.015,386.117C602.489,386.117 607.738,380.868 607.738,374.393Z" style="fill:rgb(243,127,114);fill-rule:nonzero;"/>
    </g>
    <g transform="matrix(4.16667,0,0,4.16667,-1443.95,-1411.45)">
        <path d="M599.858,496.325C599.858,489.85 594.609,484.602 588.135,484.602C581.66,484.602 576.412,489.85 576.412,496.325C576.412,502.799 581.66,508.048 588.135,508.048C594.609,508.048 599.858,502.799 599.858,496.325Z" style="fill:rgb(243,127,114);fill-rule:nonzero;"/>
    </g>
    <g transform="matrix(4.16667,0,0,4.16667,-1443.95,-1411.45)">
        <path d="M489.363,508.996C489.363,502.521 484.114,497.272 477.639,497.272C471.165,497.272 465.916,502.521 465.916,508.996C465.916,515.47 471.165,520.719 477.639,520.719C484.114,520.719 489.363,515.47 489.363,508.996Z" style="fill:rgb(243,127,114);fill-rule:nonzero;"/>
    </g>
    <g transform="matrix(4.16667,0,0,4.16667,-1443.95,-1411.45)">
        <path d="M439.184,389.099C439.184,382.625 433.935,377.376 427.46,377.376C420.985,377.376 415.737,382.625 415.737,389.099C415.737,395.574 420.985,400.822 427.46,400.822C433.935,400.822 439.184,395.574 439.184,389.099Z" style="fill:rgb(243,127,114);fill-rule:nonzero;"/>
    </g>
    <g transform="matrix(4.16667,0,0,4.16667,-1443.95,-1411.45)">
        <path d="M371.8,423.53C371.8,417.055 366.551,411.807 360.077,411.807C353.602,411.807 348.353,417.055 348.353,423.53C348.353,430.004 353.602,435.253 360.077,435.253C366.551,435.253 371.8,430.004 371.8,423.53Z" style="fill:rgb(243,127,114);fill-rule:nonzero;"/>
    </g>
</svg>
